<svg width="240" height="240" viewBox="0 0 240 240" fill="none" xmlns="http://www.w3.org/2000/svg">
<g filter="url(#filter0_d_154_6356)">
<g clip-path="url(#clip0_154_6356)">
<rect x="16.4233" y="12" width="207.153" height="207.153" rx="48" fill="#16171B"/>
<rect x="16.4233" y="12" width="207.153" height="207.153" rx="48" fill="#131316"/>
<g opacity="0.35" filter="url(#filter1_f_154_6356)">
<path d="M108.151 18.7159C115.501 14.5499 124.499 14.5499 131.849 18.7159L165.056 37.5375L197.959 56.8846C205.242 61.167 209.741 68.9594 209.808 77.4079L210.112 115.577L209.808 153.745C209.741 162.194 205.242 169.986 197.959 174.268L165.056 193.616L131.849 212.437C124.499 216.603 115.501 216.603 108.151 212.437L74.9442 193.616L42.0408 174.268C34.7579 169.986 30.2589 162.194 30.1917 153.745L29.8883 115.577L30.1917 77.4079C30.2589 68.9595 34.7578 61.167 42.0408 56.8846L74.9442 37.5375L108.151 18.7159Z" fill="url(#paint0_linear_154_6356)"/>
</g>
<path d="M91.4048 66.0481L120 49.8404L148.595 66.0481L176.929 82.7085L177.191 115.577L176.929 148.445L148.595 165.105L120 181.313L91.4047 165.105L63.0708 148.445L62.8095 115.577L63.0708 82.7085L91.4048 66.0481Z" stroke="url(#paint1_linear_154_6356)" stroke-width="24.0298"/>
<rect x="103.635" y="33.9581" width="33.1445" height="33.1445" rx="16.5723" fill="white"/>
<rect x="103.428" y="99.0043" width="33.1445" height="33.1445" rx="16.5723" fill="white"/>
<rect x="103.635" y="164.05" width="33.1445" height="33.1445" rx="16.5723" fill="white"/>
<rect x="46.4604" y="67.724" width="33.1445" height="33.1445" rx="16.5723" fill="white"/>
<rect x="159.566" y="67.724" width="33.1445" height="33.1445" rx="16.5723" fill="white"/>
<rect x="46.4604" y="131.32" width="33.1445" height="33.1445" rx="16.5723" fill="white"/>
<rect x="159.566" y="131.32" width="33.1445" height="33.1445" rx="16.5723" fill="white"/>
</g>
<rect x="16.9233" y="12.5" width="206.153" height="206.153" rx="47.5" stroke="url(#paint2_radial_154_6356)"/>
</g>
<defs>
<filter id="filter0_d_154_6356" x="0.42334" y="0" width="239.153" height="239.153" filterUnits="userSpaceOnUse" color-interpolation-filters="sRGB">
<feFlood flood-opacity="0" result="BackgroundImageFix"/>
<feColorMatrix in="SourceAlpha" type="matrix" values="0 0 0 0 0 0 0 0 0 0 0 0 0 0 0 0 0 0 127 0" result="hardAlpha"/>
<feOffset dy="4"/>
<feGaussianBlur stdDeviation="8"/>
<feComposite in2="hardAlpha" operator="out"/>
<feColorMatrix type="matrix" values="0 0 0 0 0 0 0 0 0 0 0 0 0 0 0 0 0 0 0.35 0"/>
<feBlend mode="normal" in2="BackgroundImageFix" result="effect1_dropShadow_154_6356"/>
<feBlend mode="normal" in="SourceGraphic" in2="effect1_dropShadow_154_6356" result="shape"/>
</filter>
<filter id="filter1_f_154_6356" x="-11.5425" y="-25.8393" width="263.085" height="282.832" filterUnits="userSpaceOnUse" color-interpolation-filters="sRGB">
<feFlood flood-opacity="0" result="BackgroundImageFix"/>
<feBlend mode="normal" in="SourceGraphic" in2="BackgroundImageFix" result="shape"/>
<feGaussianBlur stdDeviation="20.7153" result="effect1_foregroundBlur_154_6356"/>
</filter>
<linearGradient id="paint0_linear_154_6356" x1="32.9525" y1="85.2309" x2="214.256" y2="105.154" gradientUnits="userSpaceOnUse">
<stop stop-color="#A033F5"/>
<stop offset="1" stop-color="#42DDFF"/>
</linearGradient>
<linearGradient id="paint1_linear_154_6356" x1="132.826" y1="162.628" x2="160.115" y2="162.628" gradientUnits="userSpaceOnUse">
<stop stop-color="#B695FF"/>
<stop offset="1" stop-color="#4CA4F8"/>
</linearGradient>
<radialGradient id="paint2_radial_154_6356" cx="0" cy="0" r="1" gradientUnits="userSpaceOnUse" gradientTransform="translate(16.4234 12.2962) rotate(44.6101) scale(274.82 283.041)">
<stop stop-color="#DFE2ED"/>
<stop offset="1" stop-color="#383A43" stop-opacity="0.17"/>
</radialGradient>
<clipPath id="clip0_154_6356">
<rect x="16.4233" y="12" width="207.153" height="207.153" rx="48" fill="white"/>
</clipPath>
</defs>
</svg>
