<svg width="848" height="848" viewBox="0 0 848 848" fill="none" xmlns="http://www.w3.org/2000/svg">
<g filter="url(#filter0_d_216_14797)">
<g clip-path="url(#clip0_216_14797)">
<rect x="12" y="4" width="824" height="824" rx="183" fill="url(#paint0_linear_216_14797)"/>
<g opacity="0.2" filter="url(#filter1_f_216_14797)">
<path d="M389.894 133.615C411.361 121.447 437.639 121.447 459.106 133.615L556.087 188.584L652.183 245.088C673.453 257.595 686.593 280.353 686.789 305.027L687.675 416.5L686.789 527.973C686.593 552.647 673.453 575.405 652.183 587.912L556.087 644.416L459.106 699.385C437.639 711.553 411.361 711.553 389.894 699.385L292.913 644.416L196.817 587.912C175.547 575.405 162.407 552.647 162.211 527.973L161.325 416.5L162.211 305.027C162.407 280.353 175.547 257.595 196.817 245.088L292.913 188.584L389.894 133.615Z" fill="url(#paint1_linear_216_14797)"/>
</g>
<path d="M310.254 218.99L423.998 154.52L537.743 218.99L650.447 285.261L651.487 416.001L650.447 546.741L537.742 613.012L423.998 677.482L310.254 613.012L197.549 546.741L196.51 416.001L197.549 285.26L310.254 218.99Z" stroke="url(#paint2_linear_216_14797)" stroke-width="95.584"/>
<rect x="358.898" y="91.3447" width="131.84" height="131.84" rx="65.92" fill="#DDDDDD"/>
<rect x="358.078" y="350.081" width="131.84" height="131.84" rx="65.92" fill="#DDDDDD"/>
<rect x="358.898" y="608.816" width="131.84" height="131.84" rx="65.92" fill="#DDDDDD"/>
<rect x="131.477" y="225.657" width="131.84" height="131.84" rx="65.92" fill="#DDDDDD"/>
<rect x="581.379" y="225.657" width="131.84" height="131.84" rx="65.92" fill="#DDDDDD"/>
<rect x="131.477" y="478.625" width="131.84" height="131.84" rx="65.92" fill="#DDDDDD"/>
<rect x="581.379" y="478.625" width="131.84" height="131.84" rx="65.92" fill="#DDDDDD"/>
</g>
</g>
<defs>
<filter id="filter0_d_216_14797" x="0" y="0" width="848" height="848" filterUnits="userSpaceOnUse" color-interpolation-filters="sRGB">
<feFlood flood-opacity="0" result="BackgroundImageFix"/>
<feColorMatrix in="SourceAlpha" type="matrix" values="0 0 0 0 0 0 0 0 0 0 0 0 0 0 0 0 0 0 127 0" result="hardAlpha"/>
<feOffset dy="8"/>
<feGaussianBlur stdDeviation="6"/>
<feComposite in2="hardAlpha" operator="out"/>
<feColorMatrix type="matrix" values="0 0 0 0 0 0 0 0 0 0 0 0 0 0 0 0 0 0 0.5 0"/>
<feBlend mode="normal" in2="BackgroundImageFix" result="effect1_dropShadow_216_14797"/>
<feBlend mode="normal" in="SourceGraphic" in2="effect1_dropShadow_216_14797" result="shape"/>
</filter>
<filter id="filter1_f_216_14797" x="40.3242" y="3.48926" width="768.352" height="826.021" filterUnits="userSpaceOnUse" color-interpolation-filters="sRGB">
<feFlood flood-opacity="0" result="BackgroundImageFix"/>
<feBlend mode="normal" in="SourceGraphic" in2="BackgroundImageFix" result="shape"/>
<feGaussianBlur stdDeviation="60.5" result="effect1_foregroundBlur_216_14797"/>
</filter>
<linearGradient id="paint0_linear_216_14797" x1="424" y1="4" x2="424" y2="828" gradientUnits="userSpaceOnUse">
<stop offset="0.308252" stop-color="#1C252B"/>
<stop offset="1" stop-color="#07090B"/>
</linearGradient>
<linearGradient id="paint1_linear_216_14797" x1="170.274" y1="327.874" x2="699.779" y2="386.061" gradientUnits="userSpaceOnUse">
<stop stop-color="#A033F5"/>
<stop offset="1" stop-color="#42DDFF"/>
</linearGradient>
<linearGradient id="paint2_linear_216_14797" x1="475.015" y1="603.159" x2="583.563" y2="603.159" gradientUnits="userSpaceOnUse">
<stop stop-color="#B695FF"/>
<stop offset="1" stop-color="#4CA4F8"/>
</linearGradient>
<clipPath id="clip0_216_14797">
<rect x="12" y="4" width="824" height="824" rx="183" fill="white"/>
</clipPath>
</defs>
</svg>
